<?xml version="1.0" encoding="UTF-8" standalone="no"?>
<!-- Created with Inkscape (http://www.inkscape.org/) -->

<svg
   width="1024"
   height="1024"
   viewBox="0 0 13.873443 13.873443"
   version="1.1"
   id="svg5"
   inkscape:version="1.1.2 (b8e25be833, 2022-02-05)"
   sodipodi:docname="SettingsCore.svg"
   inkscape:export-filename="C:\Users\Gianpy\Desktop\icon.png"
   inkscape:export-xdpi="234.34703"
   inkscape:export-ydpi="234.34703"
   xmlns:inkscape="http://www.inkscape.org/namespaces/inkscape"
   xmlns:sodipodi="http://sodipodi.sourceforge.net/DTD/sodipodi-0.dtd"
   xmlns="http://www.w3.org/2000/svg"
   xmlns:svg="http://www.w3.org/2000/svg">
  <sodipodi:namedview
     id="namedview7"
     pagecolor="#ffffff"
     bordercolor="#666666"
     borderopacity="1.0"
     inkscape:pageshadow="2"
     inkscape:pageopacity="0.0"
     inkscape:pagecheckerboard="0"
     inkscape:document-units="mm"
     showgrid="false"
     inkscape:zoom="5.6340776"
     inkscape:cx="24.848788"
     inkscape:cy="36.208234"
     inkscape:window-width="1304"
     inkscape:window-height="745"
     inkscape:window-x="54"
     inkscape:window-y="-8"
     inkscape:window-maximized="1"
     inkscape:current-layer="layer1"
     units="px"
     width="52.43506px" />
  <defs
     id="defs2" />
  <g
     inkscape:label="Livello 1"
     inkscape:groupmode="layer"
     id="layer1"
     transform="translate(-10.122683,-18.556424)">
    <g
       id="g15871">
      <path
         style="fill:#478cbf;fill-opacity:1;stroke-width:0.280708"
         d="m 15.234798,31.832262 c -1.913781,-0.298023 -2.84406,-0.699622 -3.659965,-1.579997 -0.627202,-0.676763 -0.691018,-0.977629 -0.691018,-3.257875 0,-1.820203 -0.126285,-2.726038 -0.458438,-3.288328 -0.4373554,-0.740384 -0.4278355,-0.817464 0.206998,-1.676122 0.571635,-0.773179 0.789054,-0.87686 1.542397,-0.735532 0.973242,0.182581 1.637258,-0.326888 1.361762,-1.044819 -0.212932,-0.554893 0.882721,-1.327892 1.882163,-1.327892 0.514215,0 0.818494,0.181937 0.938937,0.561416 0.098,0.30878 0.413799,0.561418 0.701771,0.561418 0.287971,0 0.603768,-0.252638 0.701771,-0.561418 0.120443,-0.379479 0.424722,-0.561416 0.938937,-0.561416 0.999442,0 2.095095,0.772999 1.882163,1.327892 -0.275496,0.717931 0.38852,1.2274 1.361761,1.044819 0.753344,-0.141328 0.970763,-0.03764 1.542397,0.735532 0.634834,0.858658 0.644354,0.935738 0.206998,1.676122 -0.332857,0.563483 -0.458438,1.469577 -0.458438,3.307725 0,2.424505 -0.03477,2.566416 -0.821448,3.353099 -1.243786,1.243785 -4.427901,1.893749 -7.178748,1.465376 z m 5.754527,-1.216142 c 1.197252,-0.574779 2.080543,-1.84761 1.609232,-2.31892 -0.3466,-0.3466 -1.543702,0.168392 -1.689764,0.726936 -0.123511,0.472309 -0.381101,0.564488 -1.577439,0.564488 -1.083815,0 -1.429823,-0.101893 -1.429823,-0.421063 0,-0.280709 -0.280708,-0.421063 -0.842126,-0.421063 -0.561418,0 -0.842126,0.140354 -0.842126,0.421063 0,0.319167 -0.346008,0.421063 -1.429823,0.421063 -1.196338,0 -1.453928,-0.09218 -1.577439,-0.564488 -0.146063,-0.558544 -1.343164,-1.073536 -1.689764,-0.726936 -0.376759,0.376759 0.388713,1.70594 1.283353,2.228437 1.838677,1.073846 6.040646,1.120294 8.185719,0.09049 z m -5.414798,-2.150331 c 0.121529,-0.464731 0.382891,-0.561417 1.517618,-0.561417 1.0064,0 1.370803,0.107528 1.370803,0.404496 0,0.573539 0.481804,0.799182 1.279143,0.599062 0.438551,-0.110068 0.685817,-0.372614 0.685817,-0.728198 0,-0.461608 0.190738,-0.556068 1.122835,-0.556068 h 1.122834 v -1.762148 c 0,-1.062695 0.157228,-1.98662 0.396108,-2.32767 0.346703,-0.494985 0.334662,-0.646987 -0.09652,-1.218625 -0.42052,-0.557498 -0.5816,-0.60549 -1.100383,-0.327846 -0.830912,0.444691 -1.98504,-0.376688 -1.997462,-1.421572 -0.01329,-1.118516 -1.508908,-1.543742 -1.833427,-0.521272 -0.247725,0.78051 -1.717237,0.78051 -1.964961,0 -0.324519,-1.02247 -1.820129,-0.597244 -1.833428,0.521272 -0.01242,1.044884 -1.16655,1.866263 -1.997462,1.421572 -0.518783,-0.277644 -0.679862,-0.229652 -1.100383,0.327846 -0.431189,0.571638 -0.44323,0.72364 -0.09652,1.218625 0.23888,0.34105 0.396108,1.264975 0.396108,2.32767 v 1.762148 h 1.122834 c 0.919423,0 1.122835,0.09747 1.122835,0.538025 0,0.944021 1.646759,1.209881 1.883625,0.3041 z"
         id="path4527-3"
         sodipodi:nodetypes="sssssssssssssssssssssssssssssssssssssscsssssssssssscssss" />
      <path
         style="fill:#478cbf;fill-opacity:1;stroke-width:0.0113322"
         d="m 16.744334,27.124507 c -0.127742,-0.0146 -0.266083,-0.0425 -0.301476,-0.0608 -0.07716,-0.0399 -0.09621,-0.08885 -0.126243,-0.324333 -0.03603,-0.282519 -0.02886,-0.259178 -0.08755,-0.285136 l -0.05111,-0.02261 -0.107705,0.08305 c -0.05924,0.04568 -0.145815,0.112241 -0.192393,0.147922 -0.135723,0.103968 -0.195754,0.10801 -0.328192,0.0221 -0.238731,-0.154859 -0.683131,-0.619816 -0.765492,-0.800901 -0.02465,-0.0542 -0.0268,-0.117647 -0.0057,-0.167514 0.0085,-0.02005 0.07738,-0.115507 0.153057,-0.212113 0.144937,-0.185019 0.149013,-0.194483 0.10987,-0.255094 -0.01264,-0.01958 -0.04398,-0.02658 -0.222629,-0.04974 -0.234713,-0.03043 -0.274508,-0.0394 -0.320659,-0.0722 -0.06757,-0.04803 -0.100634,-0.193555 -0.119506,-0.525988 -0.016,-0.281795 0.01566,-0.67234 0.06183,-0.762804 0.01919,-0.0376 0.06044,-0.0751 0.09845,-0.0895 0.01696,-0.0064 0.133995,-0.02478 0.260065,-0.04078 0.126071,-0.01601 0.230126,-0.03021 0.231234,-0.03157 0.02122,-0.02594 0.04921,-0.103423 0.04111,-0.113815 -0.30816,-0.395686 -0.296852,-0.378217 -0.296909,-0.458652 -5e-5,-0.07207 0.01398,-0.101204 0.112977,-0.234579 0.181213,-0.244144 0.549785,-0.588029 0.723027,-0.674601 0.06303,-0.0315 0.138012,-0.03155 0.191258,-1.36e-4 0.02245,0.01325 0.11373,0.07996 0.202851,0.148262 0.08912,0.0683 0.171336,0.124163 0.1827,0.12414 0.03718,-7.6e-5 0.09183,-0.04198 0.09861,-0.07562 0.0036,-0.01759 0.01709,-0.11358 0.03009,-0.213302 0.013,-0.09972 0.02654,-0.194064 0.03008,-0.209645 0.0187,-0.08219 0.08482,-0.135246 0.196179,-0.157399 0.320498,-0.06376 0.758497,-0.06658 1.046719,-0.0067 0.08608,0.01787 0.144199,0.05471 0.172419,0.109279 0.01016,0.01965 0.03116,0.13581 0.04854,0.268553 l 0.03063,0.233929 0.03928,0.01981 c 0.0216,0.0109 0.04717,0.01982 0.05683,0.01983 0.0097,10e-6 0.0938,-0.05862 0.186981,-0.130278 0.243095,-0.186951 0.276259,-0.199781 0.384737,-0.148848 0.198327,0.09312 0.704033,0.596887 0.820399,0.817254 0.02748,0.05204 0.03061,0.115334 0.0083,0.167681 -0.0085,0.02005 -0.07739,0.117439 -0.152985,0.216406 -0.07559,0.09897 -0.137442,0.184587 -0.137442,0.190266 0,0.0057 0.0099,0.02977 0.02204,0.05352 l 0.02204,0.0432 0.190439,0.02489 c 0.285768,0.03735 0.303692,0.0419 0.354048,0.08985 0.05054,0.04812 0.06313,0.08641 0.08574,0.260609 0.04728,0.364236 0.02037,0.86951 -0.0544,1.021668 -0.03856,0.07847 -0.06836,0.08969 -0.334757,0.126049 -0.128784,0.01758 -0.237284,0.03215 -0.241111,0.03238 -0.0038,2.29e-4 -0.01564,0.02314 -0.02624,0.05091 l -0.01928,0.05049 0.140466,0.185122 c 0.17547,0.231252 0.192307,0.274743 0.14588,0.376822 -0.06277,0.138 -0.401453,0.514257 -0.62235,0.691384 -0.195699,0.156922 -0.28516,0.191121 -0.376868,0.144068 -0.02157,-0.01107 -0.117518,-0.07991 -0.21321,-0.152984 -0.09569,-0.07307 -0.17876,-0.132859 -0.184598,-0.132859 -0.0058,0 -0.02978,0.0098 -0.05319,0.02172 l -0.04258,0.02172 -0.02946,0.231569 c -0.04363,0.342905 -0.05546,0.357592 -0.322403,0.400328 -0.130556,0.0209 -0.608642,0.03105 -0.742464,0.01576 z m 0.658181,-0.424986 c 0.0063,-0.0063 0.02446,-0.110656 0.04027,-0.231817 0.03871,-0.296593 0.038,-0.295521 0.250411,-0.377473 0.05652,-0.0218 0.130462,-0.05394 0.164316,-0.0714 0.0453,-0.02337 0.07832,-0.03188 0.125039,-0.03221 0.07295,-5.18e-4 0.06679,-0.0041 0.298287,0.173507 l 0.153381,0.117675 0.04064,-0.031 c 0.09743,-0.07431 0.33341,-0.310267 0.40766,-0.407614 l 0.02927,-0.03837 -0.1292,-0.168154 c -0.146964,-0.191271 -0.166595,-0.224448 -0.166595,-0.281547 0,-0.03784 0.09677,-0.285633 0.161354,-0.413159 0.04027,-0.07952 0.07296,-0.0921 0.329851,-0.126947 0.123703,-0.01678 0.228245,-0.03384 0.232317,-0.03791 0.01287,-0.01287 0.0086,-0.649106 -0.0044,-0.662146 -0.0065,-0.0065 -0.108497,-0.02409 -0.226643,-0.03908 -0.238026,-0.0302 -0.258222,-0.03571 -0.301574,-0.08223 -0.02646,-0.02839 -0.109372,-0.216603 -0.169032,-0.383693 -0.03455,-0.09676 -0.02009,-0.13139 0.141907,-0.339825 l 0.1403,-0.180524 -0.03483,-0.04397 c -0.05365,-0.06774 -0.17559,-0.201317 -0.227868,-0.249614 -0.05503,-0.05084 -0.174643,-0.154924 -0.202024,-0.175796 -0.01649,-0.01257 -0.03906,0.0012 -0.169982,0.103649 -0.08303,0.06498 -0.1708,0.131594 -0.195042,0.14803 -0.06712,0.04551 -0.119795,0.04058 -0.277144,-0.02595 -0.07264,-0.03071 -0.161176,-0.06669 -0.196755,-0.07996 -0.06245,-0.02329 -0.113924,-0.06821 -0.126738,-0.110611 -0.0033,-0.01094 -0.01896,-0.118911 -0.03479,-0.239933 -0.01583,-0.121023 -0.03128,-0.222539 -0.03433,-0.225591 -0.03524,-0.03524 -0.65845,-0.04434 -0.692675,-0.01012 -0.0031,0.0031 -0.01614,0.0941 -0.02908,0.202325 -0.01294,0.108221 -0.02827,0.216298 -0.03408,0.240171 -0.01753,0.0721 -0.06867,0.11397 -0.207504,0.169915 -0.06856,0.02763 -0.157205,0.06407 -0.196989,0.081 -0.116974,0.04975 -0.138161,0.04236 -0.361319,-0.12612 -0.179393,-0.135439 -0.18894,-0.141032 -0.216114,-0.126618 -0.04163,0.02208 -0.317308,0.291113 -0.392554,0.383087 l -0.06466,0.07904 0.131069,0.170252 c 0.07209,0.09364 0.138853,0.185305 0.148368,0.203704 0.02882,0.05574 0.0207,0.10802 -0.03854,0.248144 -0.03071,0.07264 -0.06642,0.160447 -0.07936,0.195136 -0.02302,0.06173 -0.06176,0.108814 -0.109811,0.133471 -0.01322,0.0068 -0.124236,0.02606 -0.246709,0.04284 -0.219294,0.03004 -0.222798,0.03095 -0.230639,0.05988 -0.0044,0.01615 -0.0081,0.163049 -0.0083,0.326432 -2.55e-4,0.249805 0.0024,0.299552 0.0167,0.31273 0.01046,0.0096 0.09549,0.02556 0.220978,0.04136 0.206309,0.02599 0.277615,0.04596 0.315181,0.08831 0.0113,0.01274 0.04553,0.08469 0.07606,0.159907 0.03054,0.07521 0.06591,0.157119 0.07861,0.182016 0.02567,0.05033 0.03101,0.145529 0.01041,0.185732 -0.007,0.01361 -0.07118,0.102141 -0.142686,0.196727 -0.09395,0.124281 -0.127358,0.176638 -0.120469,0.188793 0.04243,0.07487 0.307997,0.340281 0.448257,0.448004 0.01708,0.01312 0.03971,-6.02e-4 0.18698,-0.113395 0.09215,-0.07058 0.185199,-0.137345 0.206773,-0.148376 0.04747,-0.02427 0.09616,-0.02549 0.154829,-0.0039 0.158535,0.05839 0.353024,0.146664 0.379915,0.172428 0.04348,0.04166 0.05317,0.07699 0.08778,0.320062 l 0.03003,0.210924 0.04507,0.0074 c 0.07262,0.012 0.603357,0.0054 0.616413,-0.0076 z m -0.502121,-0.878812 c -0.599439,-0.08305 -1.064354,-0.512176 -1.192053,-1.100297 -0.02805,-0.129199 -0.03316,-0.35639 -0.01105,-0.491082 0.09302,-0.566453 0.497263,-1.000927 1.06022,-1.139499 0.140398,-0.03456 0.380924,-0.04223 0.533895,-0.01704 0.512777,0.08446 0.938647,0.448089 1.098817,0.938228 0.08929,0.273256 0.08929,0.582602 0,0.855859 -0.157652,0.482431 -0.583803,0.853382 -1.083102,0.942805 -0.09864,0.01766 -0.31623,0.02356 -0.406732,0.01103 z m 0.410385,-0.538925 c 0.152689,-0.04419 0.265702,-0.111626 0.379451,-0.226414 0.112623,-0.113652 0.187934,-0.247006 0.229725,-0.406777 0.02788,-0.106612 0.0279,-0.321868 1.1e-5,-0.424956 -0.04771,-0.176431 -0.160013,-0.354232 -0.293251,-0.464298 -0.08126,-0.06713 -0.24394,-0.15099 -0.342257,-0.176433 -0.470993,-0.121889 -0.950221,0.169539 -1.072237,0.652047 -0.03433,0.135766 -0.02677,0.339511 0.01745,0.470301 0.111382,0.329445 0.389016,0.560006 0.730972,0.607038 0.09514,0.01309 0.244487,6.8e-5 0.350138,-0.03051 z"
         id="path13085"
         sodipodi:nodetypes="ccsccsssscsccccsccccscccsscscccssccscssccsccsccscsccscscsscccscccccccsccccssssccscscccsscccccscsscccscccscscccccccscccccscscsccccccccscccccccsccscccccc" />
    </g>
    <path
       id="path4527-3-6"
       style="fill:#4757bf;fill-opacity:1;stroke-width:1.06094"
       d="M 20.015625 1.3808594 C 16.238206 1.3808594 12.097561 4.3012041 12.902344 6.3984375 C 13.725639 8.5439096 12.327737 10.196282 9.8886719 10.453125 C 13.14779 10.763689 15.251776 8.9224965 14.283203 6.3984375 C 13.52706 4.4279563 17.136789 1.7310569 20.708984 1.4121094 C 20.490651 1.3905056 20.258561 1.3808594 20.015625 1.3808594 z M 32.417969 1.3808594 C 30.474479 1.3808594 29.324358 2.0677018 28.869141 3.5019531 C 28.576538 4.4238628 27.770531 5.2129186 26.908203 5.5039062 C 27.137134 5.5810386 27.369414 5.625 27.597656 5.625 C 28.686051 5.625 29.879595 4.6689956 30.25 3.5019531 C 30.648144 2.2475242 31.57831 1.5637295 33.105469 1.4121094 C 32.875685 1.3915929 32.646268 1.3808594 32.417969 1.3808594 z M 20.871094 3.4316406 C 20.676388 3.438442 20.480193 3.4632221 20.285156 3.5019531 C 21.259603 3.7089828 22.110099 4.3842219 22.503906 5.625 C 23.038782 7.310245 25.081115 8.0312554 26.908203 7.7910156 C 25.537041 7.6107245 24.28617 6.8897141 23.884766 5.625 C 23.386488 4.0550657 22.157964 3.3866885 20.871094 3.4316406 z M 34.326172 3.4316406 C 34.056834 3.4222323 33.789333 3.4472431 33.53125 3.5019531 C 35.220205 3.8373804 36.834592 5.3435684 36.861328 7.59375 C 36.902492 11.056236 40.259427 13.868953 43.203125 13.376953 C 40.681703 12.98241 38.275032 10.520786 38.240234 7.59375 C 38.21041 5.0836944 36.206987 3.4973399 34.326172 3.4316406 z M 5.9472656 10.146484 C 4.4136805 10.168331 3.5461639 10.937218 1.9257812 13.128906 C -0.47358946 16.374228 -0.50846554 16.664589 1.1445312 19.462891 C 2.3999127 21.588081 2.8769531 25.011118 2.8769531 31.890625 C 2.8769531 40.508878 3.117754 41.647234 5.4882812 44.205078 C 8.5720167 47.53248 12.089078 49.049395 19.322266 50.175781 C 21.694313 50.545166 24.149952 50.701125 26.585938 50.667969 C 24.606545 50.635902 22.625258 50.475408 20.701172 50.175781 C 13.467984 49.049395 9.9528761 47.53248 6.8691406 44.205078 C 4.4986134 41.647234 4.2578125 40.508878 4.2578125 31.890625 C 4.2578125 25.011118 3.780772 21.588081 2.5253906 19.462891 C 0.87239157 16.664589 0.90726803 16.374228 3.3066406 13.128906 C 4.7218705 11.214702 5.5653993 10.388962 6.7773438 10.195312 C 6.4781609 10.160615 6.2028631 10.142843 5.9472656 10.146484 z M 46.488281 10.146484 C 45.977086 10.1392 45.391509 10.214118 44.679688 10.347656 C 44.422959 10.395819 44.172267 10.429823 43.927734 10.453125 C 44.572928 10.520857 45.291363 10.491956 46.060547 10.347656 C 46.415002 10.28116 46.736992 10.230011 47.035156 10.195312 C 46.86035 10.167539 46.681381 10.149236 46.488281 10.146484 z M 7.6464844 12.341797 C 7.4095188 12.336485 7.1896688 12.384115 6.9707031 12.486328 C 7.2792485 12.592011 7.6232181 12.751561 8.0253906 12.966797 C 8.8382099 13.401805 9.7327902 13.514729 10.613281 13.376953 C 10.199482 13.307804 9.7933022 13.173941 9.40625 12.966797 C 8.670967 12.573286 8.1245348 12.352512 7.6464844 12.341797 z M 47.548828 12.341797 C 47.332253 12.346651 47.099311 12.398794 46.84375 12.486328 C 47.361029 12.727777 47.870424 13.281754 48.568359 14.207031 C 50.198024 16.367553 50.243967 16.941691 48.933594 18.8125 C 48.03074 20.101508 47.435547 23.59289 47.435547 27.609375 L 47.435547 34.269531 L 48.816406 34.269531 L 48.816406 27.609375 C 48.816406 23.59289 49.4116 20.101508 50.314453 18.8125 C 51.624827 16.941691 51.578883 16.367553 49.949219 14.207031 C 48.955864 12.890107 48.34558 12.323938 47.548828 12.341797 z M 43.193359 34.269531 C 39.670473 34.269531 38.949219 34.626434 38.949219 36.371094 C 38.949219 37.715033 38.014937 38.707042 36.357422 39.123047 C 35.913454 39.234476 35.497613 39.307091 35.107422 39.349609 C 35.830716 39.451912 36.715965 39.379633 37.738281 39.123047 C 39.395797 38.707042 40.330078 37.715033 40.330078 36.371094 C 40.330078 34.626434 41.049379 34.269531 44.572266 34.269531 L 43.193359 34.269531 z M 26.341797 35.330078 C 22.053065 35.330078 21.064791 35.696661 20.605469 37.453125 C 20.286732 38.671983 19.290875 39.325483 18.142578 39.505859 C 19.795183 39.75419 21.543391 39.146925 21.986328 37.453125 C 22.416943 35.80644 23.311064 35.382517 26.955078 35.335938 C 26.756869 35.333327 26.555078 35.330078 26.341797 35.330078 z M 7.9082031 36.390625 C 7.696969 36.393586 7.5004336 36.418793 7.3203125 36.464844 C 9.104535 36.78531 11.29456 38.134587 11.667969 39.5625 C 12.134782 41.347601 13.109267 41.697266 17.630859 41.697266 C 17.859717 41.697266 18.077355 41.693886 18.289062 41.691406 C 14.386729 41.651354 13.489503 41.247648 13.048828 39.5625 C 12.61754 37.913256 9.7616556 36.364647 7.9082031 36.390625 z M 47.287109 36.390625 C 47.038479 36.38714 46.770575 36.41326 46.494141 36.462891 C 46.757381 36.529907 46.982005 36.646067 47.152344 36.816406 C 48.933677 38.597735 45.595359 43.407685 41.070312 45.580078 C 37.302841 47.388761 31.856764 48.316306 26.408203 48.386719 C 32.305129 48.468006 38.36497 47.541777 42.451172 45.580078 C 46.976219 43.407685 50.314536 38.597735 48.533203 36.816406 C 48.246644 36.529847 47.806076 36.397899 47.287109 36.390625 z M 27.597656 38.513672 C 27.353225 38.513672 27.124477 38.521078 26.908203 38.535156 C 28.56832 38.643526 29.400391 39.16704 29.400391 40.105469 C 29.400391 41.311781 30.708379 41.697266 34.804688 41.697266 C 35.057865 41.697266 35.29588 41.693782 35.527344 41.691406 C 31.949709 41.649494 30.78125 41.244385 30.78125 40.105469 C 30.78125 39.044521 29.719551 38.513672 27.597656 38.513672 z "
       transform="matrix(0.26458333,0,0,0.26458333,10.122683,18.556424)" />
    <path
       id="path13085-6"
       style="fill:#4757bf;fill-opacity:1;stroke-width:0.0428304"
       d="M 26.287109 12.113281 C 25.585668 12.117779 24.867384 12.18029 24.261719 12.300781 C 23.840834 12.384509 23.592162 12.585845 23.521484 12.896484 C 23.508105 12.955373 23.457337 13.312559 23.408203 13.689453 C 23.388063 13.843945 23.36767 13.984918 23.349609 14.115234 C 23.437432 14.180903 23.519244 14.239974 23.611328 14.310547 C 23.94816 14.568689 24.257831 14.781337 24.300781 14.78125 C 24.441304 14.780963 24.648203 14.621284 24.673828 14.494141 C 24.687434 14.427659 24.737976 14.066355 24.787109 13.689453 C 24.836243 13.312559 24.888964 12.955373 24.902344 12.896484 C 24.973021 12.585845 25.221694 12.384509 25.642578 12.300781 C 26.070829 12.215585 26.556154 12.160139 27.050781 12.132812 C 26.802294 12.118503 26.546112 12.111621 26.287109 12.113281 z M 31.359375 13.585938 C 31.160237 13.585259 30.937733 13.718641 30.480469 14.0625 L 30.550781 14.587891 L 30.699219 14.662109 C 30.780857 14.703306 30.877552 14.738243 30.914062 14.738281 C 30.950724 14.738319 31.26696 14.516927 31.619141 14.246094 C 31.796626 14.1096 31.938413 14.002495 32.064453 13.912109 C 31.92383 13.811445 31.796713 13.732121 31.693359 13.683594 C 31.565236 13.623437 31.464803 13.586297 31.359375 13.585938 z M 27.195312 13.599609 C 27.030761 13.601807 26.880336 13.605422 26.75 13.613281 C 27.181259 13.632251 27.532847 13.667613 27.582031 13.716797 C 27.593559 13.728332 27.653061 14.112903 27.712891 14.570312 C 27.772721 15.027718 27.831278 15.435214 27.84375 15.476562 C 27.892181 15.636818 28.086234 15.806506 28.322266 15.894531 C 28.456737 15.944686 28.791861 16.081196 29.066406 16.197266 C 29.661111 16.448718 29.859599 16.466928 30.113281 16.294922 C 30.146127 16.272652 30.235686 16.206524 30.318359 16.144531 C 30.075098 16.043016 29.817188 15.937074 29.703125 15.894531 C 29.467094 15.806506 29.27304 15.636818 29.224609 15.476562 C 29.212137 15.435214 29.15358 15.027718 29.09375 14.570312 C 29.03392 14.112903 28.974418 13.728332 28.962891 13.716797 C 28.879647 13.633553 27.928669 13.589816 27.195312 13.599609 z M 21.117188 13.662109 C 20.991405 13.662197 20.859346 13.692426 20.740234 13.751953 C 20.085461 14.079154 18.692712 15.378032 18.007812 16.300781 C 17.633651 16.804876 17.581842 16.915109 17.582031 17.1875 C 17.582247 17.491506 17.538426 17.426369 18.703125 18.921875 C 18.733739 18.961152 18.62903 19.253522 18.548828 19.351562 C 18.54464 19.356703 18.150317 19.410193 17.673828 19.470703 C 17.197343 19.531176 16.755507 19.600811 16.691406 19.625 C 16.547746 19.679425 16.390889 19.82078 16.318359 19.962891 C 16.143859 20.304802 16.025465 21.780651 16.085938 22.845703 C 16.157265 24.102143 16.281727 24.652454 16.537109 24.833984 C 16.711538 24.957953 16.860943 24.992411 17.748047 25.107422 C 18.423256 25.194956 18.542071 25.220919 18.589844 25.294922 C 18.737786 25.524003 18.723575 25.560481 18.175781 26.259766 C 17.889758 26.624891 17.629782 26.984767 17.597656 27.060547 C 17.517908 27.249021 17.525975 27.488509 17.619141 27.693359 C 17.930426 28.377775 19.609428 30.135409 20.511719 30.720703 C 21.012272 31.045402 21.238984 31.029669 21.751953 30.636719 C 21.754355 30.634879 21.759261 30.630789 21.761719 30.628906 C 20.836971 29.971912 19.294947 28.346145 18.998047 27.693359 C 18.904882 27.488509 18.896814 27.249021 18.976562 27.060547 C 19.008688 26.984767 19.270617 26.624891 19.556641 26.259766 C 20.104434 25.560481 20.118645 25.524003 19.970703 25.294922 C 19.92293 25.220919 19.804115 25.194956 19.128906 25.107422 C 18.241802 24.992411 18.092398 24.957953 17.917969 24.833984 C 17.662586 24.652454 17.538124 24.102143 17.466797 22.845703 C 17.406324 21.780651 17.524718 20.304802 17.699219 19.962891 C 17.771748 19.82078 17.928606 19.679425 18.072266 19.625 C 18.136366 19.600811 18.578202 19.531176 19.054688 19.470703 C 19.531176 19.410193 19.923547 19.356703 19.927734 19.351562 C 20.007936 19.253522 20.114599 18.961152 20.083984 18.921875 C 18.919285 17.426369 18.961153 17.491506 18.960938 17.1875 C 18.960749 16.915109 19.01451 16.804876 19.388672 16.300781 C 19.968415 15.519707 21.054212 14.471569 21.771484 13.96875 C 21.624023 13.860714 21.507092 13.778041 21.462891 13.751953 C 21.362268 13.692588 21.24297 13.662022 21.117188 13.662109 z M 22.451172 15.324219 C 22.431928 15.32638 22.413788 15.335488 22.394531 15.345703 C 22.328035 15.380972 22.102282 15.584317 21.84375 15.832031 C 22.675397 16.459574 22.75737 16.487873 23.197266 16.300781 C 23.283324 16.264159 23.464857 16.189864 23.623047 16.125 C 23.507727 16.043913 23.378616 15.949339 23.212891 15.824219 C 22.661999 15.408304 22.53456 15.314853 22.451172 15.324219 z M 32.816406 15.330078 C 32.742927 15.342823 32.603539 15.445922 32.232422 15.736328 C 32.180796 15.776731 32.135431 15.811697 32.083984 15.851562 C 32.148655 15.909219 32.21107 15.964629 32.257812 16.007812 C 32.455399 16.190352 32.916369 16.695147 33.119141 16.951172 L 33.25 17.117188 L 32.71875 17.800781 C 32.106478 18.588567 32.053011 18.718277 32.183594 19.083984 C 32.40908 19.715506 32.722259 20.427855 32.822266 20.535156 C 32.986116 20.71098 33.063265 20.731561 33.962891 20.845703 C 34.409427 20.902358 34.793792 20.969574 34.818359 20.994141 C 34.867493 21.043426 34.88458 23.447451 34.835938 23.496094 C 34.820547 23.511476 34.42457 23.575251 33.957031 23.638672 C 32.986105 23.770377 32.863139 23.818593 32.710938 24.119141 C 32.46684 24.601129 32.101562 25.538623 32.101562 25.681641 C 32.101562 25.897448 32.175014 26.021227 32.730469 26.744141 L 33.21875 27.380859 L 33.107422 27.525391 C 32.919745 27.771448 32.461398 28.249766 32.066406 28.625 C 32.121367 28.667126 32.150699 28.689069 32.214844 28.738281 L 32.794922 29.183594 L 32.947266 29.066406 C 33.315505 28.78555 34.207651 27.893316 34.488281 27.525391 L 34.599609 27.380859 L 34.111328 26.744141 C 33.555874 26.021227 33.480469 25.897448 33.480469 25.681641 C 33.480469 25.538623 33.8477 24.601129 34.091797 24.119141 C 34.243998 23.818593 34.366964 23.770377 35.337891 23.638672 C 35.80543 23.575251 36.201407 23.511476 36.216797 23.496094 C 36.265439 23.447451 36.248353 21.043426 36.199219 20.994141 C 36.174652 20.969574 35.788333 20.902358 35.341797 20.845703 C 34.442171 20.731561 34.366975 20.71098 34.203125 20.535156 C 34.103119 20.427855 33.78994 19.715506 33.564453 19.083984 C 33.43387 18.718277 33.487337 18.588567 34.099609 17.800781 L 34.630859 17.117188 L 34.498047 16.951172 C 34.295275 16.695147 33.834305 16.190352 33.636719 16.007812 C 33.428731 15.815661 32.978487 15.422636 32.875 15.34375 C 32.859419 15.331873 32.840899 15.32583 32.816406 15.330078 z M 26.341797 17.013672 C 25.887676 17.010401 25.407821 17.053128 25.076172 17.134766 C 22.94846 17.658502 21.421884 19.300482 21.070312 21.441406 C 20.986747 21.950478 21.005312 22.808564 21.111328 23.296875 C 21.59397 25.519695 23.351591 27.141188 25.617188 27.455078 C 25.901068 27.494381 26.511784 27.485602 26.925781 27.443359 C 24.695323 27.105186 22.969658 25.49588 22.492188 23.296875 C 22.386172 22.808564 22.365653 21.950478 22.449219 21.441406 C 22.80079 19.300482 24.32932 17.658502 26.457031 17.134766 C 26.5996 17.099671 26.769678 17.070765 26.953125 17.050781 C 26.766581 17.027966 26.558827 17.015235 26.341797 17.013672 z M 27.617188 18.892578 C 27.386793 18.893494 27.160371 18.920474 26.939453 18.96875 C 26.982112 18.978004 27.025717 18.987011 27.068359 18.998047 C 27.439951 19.094209 28.054204 19.410343 28.361328 19.664062 C 28.864905 20.08006 29.290382 20.753096 29.470703 21.419922 C 29.57611 21.809546 29.576076 22.622448 29.470703 23.025391 C 29.312753 23.62925 29.027224 24.132949 28.601562 24.5625 C 28.171645 24.996344 27.745061 25.250951 27.167969 25.417969 C 27.09014 25.440494 27.005606 25.461271 26.917969 25.478516 C 27.018516 25.501602 27.120721 25.518914 27.224609 25.533203 C 27.584194 25.582677 28.149517 25.533539 28.548828 25.417969 C 29.12592 25.250951 29.552504 24.996344 29.982422 24.5625 C 30.408084 24.132949 30.691659 23.62925 30.849609 23.025391 C 30.954983 22.622448 30.95697 21.809546 30.851562 21.419922 C 30.671241 20.753096 30.245764 20.08006 29.742188 19.664062 C 29.435063 19.410343 28.820811 19.094209 28.449219 18.998047 C 28.171073 18.926065 27.891584 18.891487 27.617188 18.892578 z M 22.824219 28.0625 C 22.728068 28.064919 22.636582 28.088901 22.546875 28.134766 C 22.473066 28.172505 22.176902 28.383697 21.863281 28.621094 C 22.074646 28.817706 22.278533 28.999456 22.439453 29.123047 C 22.504007 29.172634 22.589873 29.121617 23.146484 28.695312 C 23.326091 28.557747 23.504537 28.425251 23.648438 28.322266 C 23.476972 28.250766 23.299823 28.180652 23.132812 28.119141 C 23.021942 28.078341 22.920369 28.060081 22.824219 28.0625 z M 29.707031 28.082031 C 29.530456 28.083278 29.405588 28.116751 29.234375 28.205078 C 29.106423 28.271069 28.8269 28.392216 28.613281 28.474609 C 27.810468 28.784349 27.812321 28.779409 27.666016 29.900391 C 27.606261 30.358322 27.537483 30.753533 27.513672 30.777344 C 27.494313 30.79662 27.172399 30.811267 26.773438 30.820312 C 27.361759 30.843408 28.852007 30.819686 28.894531 30.777344 C 28.918342 30.753533 28.987121 30.358322 29.046875 29.900391 C 29.193181 28.779409 29.191327 28.784349 29.994141 28.474609 C 30.094471 28.435911 30.207592 28.387939 30.314453 28.341797 C 29.953498 28.074354 29.910907 28.080584 29.707031 28.082031 z M 24.267578 29.763672 L 23.859375 30.078125 C 23.702855 30.198818 23.522121 30.337755 23.351562 30.46875 C 23.368445 30.5972 23.384353 30.725407 23.410156 30.927734 C 23.523667 31.817749 23.59509 32.003494 23.886719 32.154297 C 24.020488 32.223462 24.544539 32.327631 25.027344 32.382812 C 25.308818 32.414973 25.990177 32.416265 26.626953 32.398438 C 26.540967 32.394319 26.465231 32.389269 26.408203 32.382812 L 26.40625 32.382812 C 25.923975 32.327572 25.401171 32.223371 25.267578 32.154297 C 24.97595 32.003494 24.904526 31.817749 24.791016 30.927734 C 24.654839 29.859946 24.680805 29.947718 24.458984 29.849609 L 24.267578 29.763672 z M 30.904297 29.771484 C 30.882376 29.771484 30.793557 29.808464 30.705078 29.853516 L 30.542969 29.935547 L 30.476562 30.462891 C 30.740966 30.65931 30.965106 30.819621 31.027344 30.851562 C 31.304615 30.993823 31.578397 30.940376 32.054688 30.609375 C 31.918893 30.511081 31.763222 30.395395 31.603516 30.273438 C 31.241853 29.997267 30.926362 29.771484 30.904297 29.771484 z "
       transform="matrix(0.26458333,0,0,0.26458333,10.122683,18.556424)" />
  </g>
</svg>
